<svg viewBox="-574.4960436010651 -602.7583139031148 1198.960057502762 1170.3077586597433" xmlns="http://www.w3.org/2000/svg"><defs><pattern id="grid" width="80" height="auto" patternUnits="userSpaceOnUse"><path d="M 80 0 L 0 0 0 80" fill="none" stroke="rgba(255,255,255,0.08)" stroke-width="1.5"/></pattern></defs><style>text{font-family:"Segoe UI",sans-serif;fill:#ffffff;font-size:15px;letter-spacing:1.5px;pointer-events:none;}.node{transform-origin:center;transform-box:fill-box;}.line{stroke-dasharray:1000;stroke-dashoffset:1000;}.hidden-node{opacity:0;pointer-events:none;transform:scale(0.5);transition:all 0.5s cubic-bezier(0.175,0.885,0.32,1.275);}.revealed-node{opacity:1;pointer-events:auto;transform:scale(1);}.hidden-line{opacity:0;}.revealed-line{opacity:1!important;animation:dL 1.5s forwards;}.skill-line{transition:all .4s;stroke-opacity:.15;}@keyframes dL{to{stroke-dashoffset:0;}}.energy{stroke-dasharray:6 12;animation:fL 3s linear infinite;}@keyframes fL{to{stroke-dashoffset:-36;}}.interactive{cursor:pointer;}.locked{filter:grayscale(1) brightness(.5);transition:all .4s;}.locked:hover{filter:grayscale(.2) brightness(1);transform:scale(1.08);}.unlocked{filter:none;}.unlocked-anim{animation:uP .8s forwards;}@keyframes uP{0%{transform:scale(1);}50%{transform:scale(1.5);}100%{transform:scale(1);}}.unlocked .hex-bg{fill:var(--skill-color)!important;fill-opacity:.2!important;}.unlocked .hex-border{stroke-opacity:1!important;stroke-width:3.5!important;}.unlocked .skill-text{fill:#fff !important;font-weight:bold;text-shadow:none;}.unlocked .lock-icon{opacity:0;}.hud-box{fill:rgba(0,0,15,.96);stroke:#58a6ff;stroke-width:1.5;}.skill.locked .hex-border { stroke: #444 !important; }
        .skill.locked .skill-text { fill: #fff !important; }
        .revealed-line.join-line, .join-line.energy { 
            animation-name: flow;
            animation-duration: var(--anim-speed, 0.6s);
            animation-timing-function: linear;
            animation-iteration-count: infinite;
        }
        @keyframes flow { to { stroke-dashoffset: -40; } }
    </style><rect x="-574.4960436010651" y="-602.7583139031148" width="1198.960057502762" height="1170.3077586597433" fill="transparent"/><rect x="-574.4960436010651" y="-602.7583139031148" width="1198.960057502762" height="1170.3077586597433" fill="url(#grid)"/><g id="core-node" class="node interactive" onclick="handleClick(this)"><path d="M 56.29165124598852,32.49999999999999 L 3.980102097228898e-15,65 L -56.291651245988504,32.50000000000002 L -56.291651245988525,-32.49999999999998 L -1.1940306291686693e-14,-65 L 56.2916512459885,-32.50000000000003 Z" fill="#000" stroke="#58a6ff" stroke-width="4" /><path d="M 48.49742261192857,27.999999999999996 L 3.429011037612589e-15,56 L -48.497422611928556,28.000000000000018 L -48.49742261192857,-27.999999999999986 L -1.0287033112837767e-14,-56 L 48.49742261192855,-28.000000000000025 Z" fill="none" stroke="#58a6ff" stroke-opacity=".5" stroke-width="2" class="energy" /><text x="0" y="0" alignment-baseline="middle" font-weight="bold" fill="#fff" style="font-size:16px;letter-spacing:3px;"><tspan x="0" dy="-9.6" text-anchor="middle">TECH</tspan><tspan x="0" dy="1.2em" text-anchor="middle">STACK</tspan></text></g><path class="line cat-line revealed-line" d="M 3.980102097228898e-15 -65 L 2.4492935982947064e-14 -230" stroke="#3498db" stroke-opacity=".5" stroke-width="3" fill="none"/><path class="line cat-line revealed-line" d="M 61.81867355918498 -20.08610463437158 L 214.63458233635023 -100.30681044782101" stroke="#9b59b6" stroke-opacity=".5" stroke-width="3" fill="none"/><path class="line cat-line revealed-line" d="M 38.20604139901075 52.58610463437159 L 135.1906080272688 186.07390870623794" stroke="#e67e22" stroke-opacity=".5" stroke-width="3" fill="none"/><path class="line cat-line revealed-line" d="M -38.20604139901074 52.58610463437159 L -132.25168176580644 182.0288237343632" stroke="#1abc9c" stroke-opacity=".5" stroke-width="3" fill="none"/><path class="line cat-line revealed-line" d="M -61.81867355918499 -20.086104634371573 L -218.74299874788537 -71.07390870623789" stroke="#2ecc71" stroke-opacity=".5" stroke-width="3" fill="none"/><g class="node cat-node revealed-node interactive" data-name="Frontend" onclick="handleClick(this)"><path d="M 2.4492935982947064e-14,-230 L -80.83980388508803,-288.73355547812946 L -49.961746444860204,-383.76644452187054 L 49.96174644486022,-383.76644452187054 L 80.83980388508807,-288.73355547812946 Z" fill="#000" stroke="#3498db" stroke-width="4" /><text x="1.9288187086570814e-14" y="-311.3333333333333" text-anchor="middle" font-weight="bold" fill="#3498db" style="font-size:11px;">FRONTEND</text></g><g class="node cat-node revealed-node interactive" data-name="Frameworks" onclick="handleClick(this)"><path d="M 214.63458233635023,-100.30681044782101 L 302.5492598526859,-182.28857352473156 L 384.5310229295965,-94.3738960083959 L 296.61634541326083,-12.392132931485293 Z" fill="#000" stroke="#9b59b6" stroke-width="4" /><text x="299.58280263297337" y="-93.67368656144176" text-anchor="middle" font-weight="bold" fill="#9b59b6" style="font-size:11px;">FRAMEWORKS</text></g><g class="node cat-node revealed-node interactive" data-name="Backend" onclick="handleClick(this)"><path d="M 135.1906080272688,186.07390870623794 L 269.68671557843226,245.95543385035785 L 150.57973981068602,332.49171712772954 Z" fill="#000" stroke="#e67e22" stroke-width="4" /><text x="185.15235447212905" y="258.5070198947751" text-anchor="middle" font-weight="bold" fill="#e67e22" style="font-size:11px;">BACKEND</text></g><g class="node cat-node revealed-node interactive" data-name="Databases" onclick="handleClick(this)"><path d="M -132.25168176580644,182.0288237343632 L -148.54605659530688,337.0594444159425 L -274.6593250552736,245.43279153401963 Z" fill="#000" stroke="#1abc9c" stroke-width="4" /><text x="-185.152354472129" y="258.5070198947751" text-anchor="middle" font-weight="bold" fill="#1abc9c" style="font-size:11px;">DATABASES</text></g><g class="node cat-node revealed-node interactive" data-name="Tools" onclick="handleClick(this)"><path d="M -218.74299874788537,-71.07390870623789 L -362.75011279855187,-40.46425168760539 L -317.25529635248296,-180.4828992904819 Z" fill="#000" stroke="#2ecc71" stroke-width="4" /><text x="-299.5828026329734" y="-93.67368656144173" text-anchor="middle" font-weight="bold" fill="#2ecc71" style="font-size:11px;">TOOLS</text></g><path data-link="TS" data-parent="Frontend" class="skill-line-base line revealed-line" style="stroke-dasharray: none; animation: none; " d="M -80.83980388508803 -288.73355547812946 L -150.68269093114847 -264.059171720576" stroke="#3178c6" stroke-width="3.5" stroke-opacity="0.15" fill="none"/><path data-link="HTML" data-parent="Frontend" class="skill-line-base line revealed-line" style="stroke-dasharray: none; animation: none; " d="M -49.961746444860204 -383.76644452187054 L -93.96937248839461 -443.26884030871105" stroke="#e34f26" stroke-width="3.5" stroke-opacity="0.15" fill="none"/><path data-link="CSS" data-parent="Frontend" class="skill-line-base line revealed-line" style="stroke-dasharray: none; animation: none; " d="M 49.96174644486022 -383.76644452187054 L 83.44120966079245 -454.75831390311475" stroke="#1572b6" stroke-width="3.5" stroke-opacity="0.15" fill="none"/><path data-link="Astro" data-parent="Frontend" class="skill-line-base line revealed-line" style="stroke-dasharray: none; animation: none; " d="M 80.83980388508807 -288.73355547812946 L 214.7451980475182 -291.4816252968587" stroke="#3498db" stroke-width="3.5" stroke-opacity="0.15" fill="none"/><path data-link="Astro" data-parent="Frameworks" class="skill-line-base line revealed-line" style="stroke-dasharray: none; animation: none; " d="M 302.5492598526859 -182.28857352473156 L 277.0990271199978 -255.48162529685868" stroke="#9b59b6" stroke-width="3.5" stroke-opacity="0.15" fill="none"/><path data-link="Tauri" data-parent="Frameworks" class="skill-line-base line revealed-line" style="stroke-dasharray: none; animation: none; " d="M 296.61634541326083 -12.392132931485293 L 292.7774007759858 61.54085804061525" stroke="#ffc131" stroke-width="3.5" stroke-opacity="0.15" fill="none"/><path data-link="Tailwind" data-parent="Frameworks" class="skill-line-base line revealed-line" style="stroke-dasharray: none; animation: none; " d="M 384.5310229295965 -94.3738960083959 L 451.16274371247505 -65.53495137112085" stroke="#38bdf8" stroke-width="3.5" stroke-opacity="0.15" fill="none"/><path data-link="Rust" data-parent="Backend" class="skill-line-base line revealed-line" style="stroke-dasharray: none; animation: none; " d="M 269.68671557843226 245.95543385035785 L 347.9072095327025 252.45730289091588" stroke="#dea584" stroke-width="3.5" stroke-opacity="0.15" fill="none"/><path data-link="Python" data-parent="Backend" class="skill-line-base line revealed-line" style="stroke-dasharray: none; animation: none; " d="M 150.57973981068602 332.49171712772954 L 121.05296649501315 400.35463713509625" stroke="#e67e22" stroke-width="3.5" stroke-opacity="0.15" fill="none"/><path data-link="Supabase" data-parent="Databases" class="skill-line-base line revealed-line" style="stroke-dasharray: none; animation: none; " d="M -148.54605659530688 337.0594444159425 L -122.82284763530026 396.7655943399793" stroke="#3ecf8e" stroke-width="3.5" stroke-opacity="0.15" fill="none"/><path data-link="SurrealDB" data-parent="Databases" class="skill-line-base line revealed-line" style="stroke-dasharray: none; animation: none; " d="M -274.6593250552736 245.43279153401963 L -335.24319333928815 238.20529196921296" stroke="#ff00a0" stroke-width="3.5" stroke-opacity="0.15" fill="none"/><path data-link="Bun" data-parent="Tools" class="skill-line-base line revealed-line" style="stroke-dasharray: none; animation: flow 1s linear infinite normal; " d="M -362.75011279855187 -40.46425168760539 L -419.04019947834945 7.684270889153375" stroke="#2ecc71" stroke-width="3.5" stroke-opacity="0.15" fill="none"/><path data-link="Git" data-parent="Tools" class="skill-line-base line revealed-line" style="stroke-dasharray: none; animation: none; " d="M -317.25529635248296 -180.4828992904819 L -330.80809671874573 -253.3058056247941" stroke="#2ecc71" stroke-width="3.5" stroke-opacity="0.15" fill="none"/><path id="epic-join-Tailwind--0" data-link="Tailwind" data-source="Tailwind" class="join-line skill-line line revealed-line" style="animation: none; stroke-dasharray: 8 6;" d="M 494.464013901697 -140.53495137112088 Q 429.9829078651276 -399.78494358138573, 145.79503873327204 -454.75831390311475" stroke="#38bdf8" stroke-opacity="0.1" stroke-width="3" filter="drop-shadow(0 0 6px #38bdf8)" fill="none"/><path id="epic-join-Rust--0" data-link="Rust" data-source="Rust" class="join-line skill-line line revealed-line" style="animation: none; stroke-dasharray: 8 6;" d="M 379.0841240689423 198.45730289091588 Q 335.93076242246406 165.9990804657656, 292.7774007759858 133.54085804061526" stroke="#dea584" stroke-opacity="0.1" stroke-width="3" filter="drop-shadow(0 0 6px #dea584)" fill="none"/><g class="node skill revealed-node interactive unlocked energy" style="--skill-color:#3178c6" data-skill-id="TS" data-name="TS" data-color="#3178c6" data-level="80" data-rarity="common" data-parents="Frontend" onclick="handleClick(this)"><path class="hex-bg" d="M -149.5930115462521,-251.60407935796954 L -150.68269093114847,-245.4242004731945 L -152.82894034423555,-239.52742867422006 L -155.96654708315123,-234.09293438824758 L -160.00017655483921,-229.28584197416953 L -164.80726896891727,-225.25221250248154 L -170.24176325488975,-222.11460576356586 L -176.1385350538642,-219.96835635047879 L -182.31841393863922,-218.8786769655824 L -188.5936274164706,-218.8786769655824 L -194.77350630124567,-219.96835635047879 L -200.67027810022012,-222.11460576356586 L -206.1047723861926,-225.25221250248154 L -210.91186480027065,-229.28584197416953 L -214.94549427195864,-234.09293438824758 L -218.08310101087432,-239.52742867422006 L -220.2293504239614,-245.4242004731945 L -221.31902980885778,-251.60407935796954 L -221.31902980885778,-257.8792928358009 L -220.2293504239614,-264.059171720576 L -218.08310101087432,-269.95594351955043 L -214.94549427195864,-275.3904378055229 L -210.91186480027065,-280.19753021960094 L -206.1047723861926,-284.23115969128895 L -200.67027810022012,-287.36876643020463 L -194.77350630124567,-289.51501584329174 L -188.59362741647064,-290.60469522818806 L -182.31841393863925,-290.60469522818806 L -176.1385350538642,-289.51501584329174 L -170.24176325488975,-287.36876643020463 L -164.8072689689173,-284.23115969128895 L -160.00017655483924,-280.19753021960094 L -155.96654708315123,-275.39043780552294 L -152.82894034423555,-269.95594351955043 L -150.68269093114847,-264.059171720576 L -149.5930115462521,-257.8792928358009 Z" fill="#000"/><path class="hex-border" d="M -149.5930115462521,-251.60407935796954 L -150.68269093114847,-245.4242004731945 L -152.82894034423555,-239.52742867422006 L -155.96654708315123,-234.09293438824758 L -160.00017655483921,-229.28584197416953 L -164.80726896891727,-225.25221250248154 L -170.24176325488975,-222.11460576356586 L -176.1385350538642,-219.96835635047879 L -182.31841393863922,-218.8786769655824 L -188.5936274164706,-218.8786769655824 L -194.77350630124567,-219.96835635047879 L -200.67027810022012,-222.11460576356586 L -206.1047723861926,-225.25221250248154 L -210.91186480027065,-229.28584197416953 L -214.94549427195864,-234.09293438824758 L -218.08310101087432,-239.52742867422006 L -220.2293504239614,-245.4242004731945 L -221.31902980885778,-251.60407935796954 L -221.31902980885778,-257.8792928358009 L -220.2293504239614,-264.059171720576 L -218.08310101087432,-269.95594351955043 L -214.94549427195864,-275.3904378055229 L -210.91186480027065,-280.19753021960094 L -206.1047723861926,-284.23115969128895 L -200.67027810022012,-287.36876643020463 L -194.77350630124567,-289.51501584329174 L -188.59362741647064,-290.60469522818806 L -182.31841393863925,-290.60469522818806 L -176.1385350538642,-289.51501584329174 L -170.24176325488975,-287.36876643020463 L -164.8072689689173,-284.23115969128895 L -160.00017655483924,-280.19753021960094 L -155.96654708315123,-275.39043780552294 L -152.82894034423555,-269.95594351955043 L -150.68269093114847,-264.059171720576 L -149.5930115462521,-257.8792928358009 Z" style="stroke-opacity: 1 !important; stroke-width: 3.5 !important; stroke-dasharray: none; animation: none; " fill="none" stroke="#3178c6" stroke-opacity=".3" stroke-width="2.5"/><g class="lock-icon" transform="translate(-185.45602067755493,-254.74168609688525) scale(.8)"><path d="M -4 -2 v-3 a 4 4 0 0 1 8 0 v3 M -5 -2 h10 v8 h-10 z" fill="none" stroke="#aaa" stroke-width="1.8"/></g><text class="skill-text" x="-185.45602067755493" y="-251.0750194302186" text-anchor="middle" style="font-size:11px;fill:#fff;">TS</text></g><g class="node skill revealed-node interactive unlocked energy" style="--skill-color:#e34f26" data-skill-id="HTML" data-name="HTML" data-color="#e34f26" data-level="90" data-rarity="common" data-parents="Frontend" onclick="handleClick(this)"><path class="hex-bg" d="M -78.75511506572943,-469.6207071641991 L -79.84479445062581,-463.440828279424 L -81.99104386371287,-457.54405648044957 L -85.12865060262857,-452.1095621944771 L -89.16228007431656,-447.30246978039906 L -93.96937248839461,-443.26884030871105 L -99.40386677436709,-440.13123356979537 L -105.30063857334152,-437.9849841567083 L -111.48051745811657,-436.89530477181194 L -117.75573093594797,-436.89530477181194 L -123.93560982072302,-437.98498415670826 L -129.83238161969746,-440.13123356979537 L -135.26687590566993,-443.26884030871105 L -140.073968319748,-447.30246978039906 L -144.10759779143598,-452.10956219447706 L -147.24520453035166,-457.54405648044957 L -149.39145394343873,-463.440828279424 L -150.48113332833512,-469.6207071641991 L -150.48113332833512,-475.89592064203043 L -149.39145394343873,-482.0757995268055 L -147.24520453035166,-487.97257132577994 L -144.10759779143598,-493.4070656117524 L -140.073968319748,-498.21415802583044 L -135.26687590566993,-502.24778749751846 L -129.83238161969746,-505.38539423643414 L -123.93560982072302,-507.53164364952124 L -117.75573093594797,-508.62132303441757 L -111.4805174581166,-508.62132303441757 L -105.30063857334154,-507.53164364952124 L -99.40386677436709,-505.38539423643414 L -93.96937248839464,-502.24778749751846 L -89.16228007431657,-498.21415802583044 L -85.12865060262857,-493.40706561175244 L -81.99104386371287,-487.97257132577994 L -79.84479445062581,-482.0757995268055 L -78.75511506572943,-475.89592064203043 Z" fill="#000"/><path class="hex-border" d="M -78.75511506572943,-469.6207071641991 L -79.84479445062581,-463.440828279424 L -81.99104386371287,-457.54405648044957 L -85.12865060262857,-452.1095621944771 L -89.16228007431656,-447.30246978039906 L -93.96937248839461,-443.26884030871105 L -99.40386677436709,-440.13123356979537 L -105.30063857334152,-437.9849841567083 L -111.48051745811657,-436.89530477181194 L -117.75573093594797,-436.89530477181194 L -123.93560982072302,-437.98498415670826 L -129.83238161969746,-440.13123356979537 L -135.26687590566993,-443.26884030871105 L -140.073968319748,-447.30246978039906 L -144.10759779143598,-452.10956219447706 L -147.24520453035166,-457.54405648044957 L -149.39145394343873,-463.440828279424 L -150.48113332833512,-469.6207071641991 L -150.48113332833512,-475.89592064203043 L -149.39145394343873,-482.0757995268055 L -147.24520453035166,-487.97257132577994 L -144.10759779143598,-493.4070656117524 L -140.073968319748,-498.21415802583044 L -135.26687590566993,-502.24778749751846 L -129.83238161969746,-505.38539423643414 L -123.93560982072302,-507.53164364952124 L -117.75573093594797,-508.62132303441757 L -111.4805174581166,-508.62132303441757 L -105.30063857334154,-507.53164364952124 L -99.40386677436709,-505.38539423643414 L -93.96937248839464,-502.24778749751846 L -89.16228007431657,-498.21415802583044 L -85.12865060262857,-493.40706561175244 L -81.99104386371287,-487.97257132577994 L -79.84479445062581,-482.0757995268055 L -78.75511506572943,-475.89592064203043 Z" style="stroke-opacity: 1 !important; stroke-width: 3.5 !important; stroke-dasharray: none; animation: none; " fill="none" stroke="#e34f26" stroke-opacity=".3" stroke-width="2.5"/><g class="lock-icon" transform="translate(-114.61812419703227,-472.75831390311475) scale(.8)"><path d="M -4 -2 v-3 a 4 4 0 0 1 8 0 v3 M -5 -2 h10 v8 h-10 z" fill="none" stroke="#aaa" stroke-width="1.8"/></g><text class="skill-text" x="-114.61812419703227" y="-469.09164723644807" text-anchor="middle" style="font-size:11px;fill:#fff;">HTML</text></g><g class="node skill revealed-node interactive unlocked energy" style="--skill-color:#1572b6" data-skill-id="CSS" data-name="CSS" data-color="#1572b6" data-level="85" data-rarity="common" data-parents="Frontend" onclick="handleClick(this)"><path class="hex-bg" d="M 145.79503873327204,-454.75831390311475 L 114.61812419703224,-436.75831390311475 L 83.44120966079245,-454.75831390311475 L 83.44120966079245,-490.75831390311475 L 114.61812419703224,-508.75831390311475 L 145.79503873327204,-490.75831390311475 Z" fill="#000"/><path class="hex-border" d="M 145.79503873327204,-454.75831390311475 L 114.61812419703224,-436.75831390311475 L 83.44120966079245,-454.75831390311475 L 83.44120966079245,-490.75831390311475 L 114.61812419703224,-508.75831390311475 L 145.79503873327204,-490.75831390311475 Z" style="stroke-opacity: 1 !important; stroke-width: 3.5 !important; stroke-dasharray: none; animation: none; " fill="none" stroke="#1572b6" stroke-opacity=".3" stroke-width="2.5"/><g class="lock-icon" transform="translate(114.61812419703224,-472.75831390311475) scale(.8)"><path d="M -4 -2 v-3 a 4 4 0 0 1 8 0 v3 M -5 -2 h10 v8 h-10 z" fill="none" stroke="#aaa" stroke-width="1.8"/></g><text class="skill-text" x="114.61812419703224" y="-469.09164723644807" text-anchor="middle" style="font-size:11px;fill:#fff;">CSS</text></g><g class="node skill revealed-node interactive unlocked energy" style="--skill-color:#3498db" data-skill-id="Astro" data-name="Astro" data-color="#3498db" data-level="90" data-rarity="common" data-parents="Frontend,Frameworks" onclick="handleClick(this)"><path class="hex-bg" d="M 277.0990271199978,-255.48162529685868 L 245.92211258375798,-237.48162529685868 L 214.7451980475182,-255.48162529685868 L 214.7451980475182,-291.4816252968587 L 245.92211258375798,-309.4816252968587 L 277.0990271199978,-291.4816252968587 Z" fill="#000"/><path class="hex-border" d="M 277.0990271199978,-255.48162529685868 L 245.92211258375798,-237.48162529685868 L 214.7451980475182,-255.48162529685868 L 214.7451980475182,-291.4816252968587 L 245.92211258375798,-309.4816252968587 L 277.0990271199978,-291.4816252968587 Z" style="stroke-opacity: 1 !important; stroke-width: 3.5 !important; stroke-dasharray: none; animation: none; " fill="none" stroke="#3498db" stroke-opacity=".3" stroke-width="2.5"/><g class="lock-icon" transform="translate(245.92211258375798,-273.4816252968587) scale(.8)"><path d="M -4 -2 v-3 a 4 4 0 0 1 8 0 v3 M -5 -2 h10 v8 h-10 z" fill="none" stroke="#aaa" stroke-width="1.8"/></g><text class="skill-text" x="245.92211258375798" y="-269.814958630192" text-anchor="middle" style="font-size:11px;fill:#fff;">Astro</text></g><g class="node skill revealed-node interactive unlocked energy" style="--skill-color:#ffc131" data-skill-id="Tauri" data-name="Tauri" data-color="#ffc131" data-level="50" data-rarity="common" data-parents="Frameworks" onclick="handleClick(this)"><path class="hex-bg" d="M 323.9543153122256,115.54085804061525 L 292.7774007759858,133.54085804061526 L 261.60048623974603,115.54085804061526 L 261.60048623974603,79.54085804061526 L 292.7774007759858,61.54085804061525 L 323.9543153122256,79.54085804061526 Z" fill="#000"/><path class="hex-border" d="M 323.9543153122256,115.54085804061525 L 292.7774007759858,133.54085804061526 L 261.60048623974603,115.54085804061526 L 261.60048623974603,79.54085804061526 L 292.7774007759858,61.54085804061525 L 323.9543153122256,79.54085804061526 Z" style="stroke-opacity: 1 !important; stroke-width: 3.5 !important; stroke-dasharray: none; animation: none; " fill="none" stroke="#ffc131" stroke-opacity=".3" stroke-width="2.5"/><g class="lock-icon" transform="translate(292.7774007759858,97.54085804061525) scale(.8)"><path d="M -4 -2 v-3 a 4 4 0 0 1 8 0 v3 M -5 -2 h10 v8 h-10 z" fill="none" stroke="#aaa" stroke-width="1.8"/></g><text class="skill-text" x="292.7774007759858" y="101.20752470728192" text-anchor="middle" style="font-size:11px;fill:#fff;">Tauri</text></g><g class="node skill revealed-node interactive unlocked energy" style="--skill-color:#38bdf8" data-skill-id="Tailwind" data-name="Tailwind" data-color="#38bdf8" data-level="85" data-rarity="common" data-parents="Frameworks" onclick="handleClick(this)"><path class="hex-bg" d="M 537.765284090919,-65.53495137112087 L 494.464013901697,-40.53495137112087 L 451.16274371247505,-65.53495137112085 L 451.16274371247505,-115.53495137112085 L 494.464013901697,-140.53495137112088 L 537.765284090919,-115.53495137112085 Z" fill="#000"/><path class="hex-border" d="M 537.765284090919,-65.53495137112087 L 494.464013901697,-40.53495137112087 L 451.16274371247505,-65.53495137112085 L 451.16274371247505,-115.53495137112085 L 494.464013901697,-140.53495137112088 L 537.765284090919,-115.53495137112085 Z" style="stroke-opacity: 1 !important; stroke-width: 3.5 !important; stroke-dasharray: none; animation: none; " fill="none" stroke="#38bdf8" stroke-opacity=".3" stroke-width="2.5"/><g class="lock-icon" transform="translate(494.464013901697,-90.53495137112087) scale(.8)"><path d="M -4 -2 v-3 a 4 4 0 0 1 8 0 v3 M -5 -2 h10 v8 h-10 z" fill="none" stroke="#aaa" stroke-width="1.8"/></g><text class="skill-text" x="494.464013901697" y="-86.8682847044542" text-anchor="middle" style="font-size:11px;fill:#fff;">Tailwind</text></g><g class="node skill revealed-node interactive unlocked energy" style="--skill-color:#dea584" data-skill-id="Rust" data-name="Rust" data-color="#dea584" data-level="50" data-rarity="common" data-parents="Backend" onclick="handleClick(this)"><path class="hex-bg" d="M 410.2610386051821,252.45730289091588 L 379.0841240689423,270.4573028909159 L 347.9072095327025,252.45730289091588 L 347.9072095327025,216.45730289091588 L 379.0841240689423,198.45730289091588 L 410.2610386051821,216.45730289091588 Z" fill="#000"/><path class="hex-border" d="M 410.2610386051821,252.45730289091588 L 379.0841240689423,270.4573028909159 L 347.9072095327025,252.45730289091588 L 347.9072095327025,216.45730289091588 L 379.0841240689423,198.45730289091588 L 410.2610386051821,216.45730289091588 Z" style="stroke-opacity: 1 !important; stroke-width: 3.5 !important; stroke-dasharray: none; animation: none; " fill="none" stroke="#dea584" stroke-opacity=".3" stroke-width="2.5"/><g class="lock-icon" transform="translate(379.0841240689423,234.45730289091588) scale(.8)"><path d="M -4 -2 v-3 a 4 4 0 0 1 8 0 v3 M -5 -2 h10 v8 h-10 z" fill="none" stroke="#aaa" stroke-width="1.8"/></g><text class="skill-text" x="379.0841240689423" y="238.12396955758254" text-anchor="middle" style="font-size:11px;fill:#fff;">Rust</text></g><g class="node skill revealed-node interactive unlocked energy" style="--skill-color:#e67e22" data-skill-id="Python" data-name="Python" data-color="#e67e22" data-level="90" data-rarity="common" data-parents="Backend" onclick="handleClick(this)"><path class="hex-bg" d="M 141.7017182036508,436.1193242073313 L 140.61203881875443,442.2992030921064 L 138.46578940566735,448.1959748910808 L 135.32818266675167,453.63046917705327 L 131.29455319506368,458.4375615911313 L 126.48746078098563,462.47119106281934 L 121.05296649501315,465.608797801735 L 115.15619469603872,467.75504721482207 L 108.97631581126367,468.84472659971846 L 102.70110233343227,468.84472659971846 L 96.52122344865722,467.75504721482207 L 90.6244516496828,465.608797801735 L 85.18995736371032,462.47119106281934 L 80.38286494963225,458.4375615911313 L 76.34923547794426,453.6304691770533 L 73.21162873902858,448.1959748910808 L 71.0653793259415,442.2992030921064 L 69.97569994104512,436.1193242073313 L 69.97569994104512,429.84411072949996 L 71.0653793259415,423.6642318447249 L 73.21162873902857,417.76746004575045 L 76.34923547794426,412.33296575977795 L 80.38286494963225,407.52587334569995 L 85.1899573637103,403.49224387401193 L 90.62445164968277,400.35463713509625 L 96.52122344865722,398.2083877220092 L 102.70110233343227,397.1187083371128 L 108.97631581126365,397.1187083371128 L 115.1561946960387,398.2083877220092 L 121.05296649501315,400.35463713509625 L 126.4874607809856,403.49224387401193 L 131.29455319506366,407.5258733456999 L 135.32818266675167,412.33296575977795 L 138.46578940566735,417.76746004575045 L 140.61203881875443,423.6642318447249 L 141.7017182036508,429.84411072949996 Z" fill="#000"/><path class="hex-border" d="M 141.7017182036508,436.1193242073313 L 140.61203881875443,442.2992030921064 L 138.46578940566735,448.1959748910808 L 135.32818266675167,453.63046917705327 L 131.29455319506368,458.4375615911313 L 126.48746078098563,462.47119106281934 L 121.05296649501315,465.608797801735 L 115.15619469603872,467.75504721482207 L 108.97631581126367,468.84472659971846 L 102.70110233343227,468.84472659971846 L 96.52122344865722,467.75504721482207 L 90.6244516496828,465.608797801735 L 85.18995736371032,462.47119106281934 L 80.38286494963225,458.4375615911313 L 76.34923547794426,453.6304691770533 L 73.21162873902858,448.1959748910808 L 71.0653793259415,442.2992030921064 L 69.97569994104512,436.1193242073313 L 69.97569994104512,429.84411072949996 L 71.0653793259415,423.6642318447249 L 73.21162873902857,417.76746004575045 L 76.34923547794426,412.33296575977795 L 80.38286494963225,407.52587334569995 L 85.1899573637103,403.49224387401193 L 90.62445164968277,400.35463713509625 L 96.52122344865722,398.2083877220092 L 102.70110233343227,397.1187083371128 L 108.97631581126365,397.1187083371128 L 115.1561946960387,398.2083877220092 L 121.05296649501315,400.35463713509625 L 126.4874607809856,403.49224387401193 L 131.29455319506366,407.5258733456999 L 135.32818266675167,412.33296575977795 L 138.46578940566735,417.76746004575045 L 140.61203881875443,423.6642318447249 L 141.7017182036508,429.84411072949996 Z" style="stroke-opacity: 1 !important; stroke-width: 3.5 !important; stroke-dasharray: none; animation: none; " fill="none" stroke="#e67e22" stroke-opacity=".3" stroke-width="2.5"/><g class="lock-icon" transform="translate(105.83870907234797,432.98171746841564) scale(.8)"><path d="M -4 -2 v-3 a 4 4 0 0 1 8 0 v3 M -5 -2 h10 v8 h-10 z" fill="none" stroke="#aaa" stroke-width="1.8"/></g><text class="skill-text" x="105.83870907234797" y="436.6483841350823" text-anchor="middle" style="font-size:11px;fill:#fff;">Python</text></g><g class="node skill revealed-node interactive unlocked energy" style="--skill-color:#3ecf8e" data-skill-id="Supabase" data-name="Supabase" data-color="#3ecf8e" data-level="80" data-rarity="common" data-parents="Databases" onclick="handleClick(this)"><path class="hex-bg" d="M -58.97626444284022,441.47145318027316 L -60.33836367396069,449.196301786242 L -63.021175440319524,456.56726653496 L -66.94318386396414,463.3603843924256 L -71.98522070357413,469.3692499100232 L -77.9940862211717,474.4112867496332 L -84.78720407863729,478.33329517327775 L -92.15816882735533,481.0161069396366 L -99.88301743332414,482.3782061707571 L -107.72703428061338,482.3782061707571 L -115.4518828865822,481.0161069396366 L -122.82284763530023,478.3332951732778 L -129.61596549276584,474.4112867496332 L -135.6248310103634,469.3692499100232 L -140.66686784997339,463.3603843924256 L -144.588876273618,456.56726653496 L -147.27168803997682,449.196301786242 L -148.63378727109733,441.47145318027316 L -148.63378727109733,433.6274363329839 L -147.27168803997685,425.9025877270151 L -144.588876273618,418.53162297829704 L -140.6668678499734,411.73850512083146 L -135.62483101036344,405.7296396032339 L -129.61596549276587,400.6876027636239 L -122.82284763530026,396.7655943399793 L -115.4518828865822,394.0827825736205 L -107.7270342806134,392.72068334249997 L -99.88301743332417,392.72068334249997 L -92.15816882735535,394.0827825736205 L -84.78720407863729,396.7655943399793 L -77.99408622117173,400.6876027636239 L -71.98522070357414,405.72963960323386 L -66.94318386396415,411.73850512083146 L -63.02117544031952,418.53162297829704 L -60.33836367396069,425.9025877270151 L -58.97626444284022,433.6274363329839 Z" fill="#000"/><path class="hex-border" d="M -58.97626444284022,441.47145318027316 L -60.33836367396069,449.196301786242 L -63.021175440319524,456.56726653496 L -66.94318386396414,463.3603843924256 L -71.98522070357413,469.3692499100232 L -77.9940862211717,474.4112867496332 L -84.78720407863729,478.33329517327775 L -92.15816882735533,481.0161069396366 L -99.88301743332414,482.3782061707571 L -107.72703428061338,482.3782061707571 L -115.4518828865822,481.0161069396366 L -122.82284763530023,478.3332951732778 L -129.61596549276584,474.4112867496332 L -135.6248310103634,469.3692499100232 L -140.66686784997339,463.3603843924256 L -144.588876273618,456.56726653496 L -147.27168803997682,449.196301786242 L -148.63378727109733,441.47145318027316 L -148.63378727109733,433.6274363329839 L -147.27168803997685,425.9025877270151 L -144.588876273618,418.53162297829704 L -140.6668678499734,411.73850512083146 L -135.62483101036344,405.7296396032339 L -129.61596549276587,400.6876027636239 L -122.82284763530026,396.7655943399793 L -115.4518828865822,394.0827825736205 L -107.7270342806134,392.72068334249997 L -99.88301743332417,392.72068334249997 L -92.15816882735535,394.0827825736205 L -84.78720407863729,396.7655943399793 L -77.99408622117173,400.6876027636239 L -71.98522070357414,405.72963960323386 L -66.94318386396415,411.73850512083146 L -63.02117544031952,418.53162297829704 L -60.33836367396069,425.9025877270151 L -58.97626444284022,433.6274363329839 Z" style="stroke-opacity: 1 !important; stroke-width: 3.5 !important; stroke-dasharray: none; animation: none; " fill="none" stroke="#3ecf8e" stroke-opacity=".3" stroke-width="2.5"/><g class="lock-icon" transform="translate(-103.80502585696877,437.54944475662853) scale(.8)"><path d="M -4 -2 v-3 a 4 4 0 0 1 8 0 v3 M -5 -2 h10 v8 h-10 z" fill="none" stroke="#aaa" stroke-width="1.8"/></g><text class="skill-text" x="-103.80502585696877" y="441.2161114232952" text-anchor="middle" style="font-size:11px;fill:#fff;">Supabase</text></g><g class="node skill revealed-node interactive unlocked energy" style="--skill-color:#ff00a0" data-skill-id="SurrealDB" data-name="SurrealDB" data-color="#ff00a0" data-level="50" data-rarity="common" data-parents="Databases" onclick="handleClick(this)"><path class="hex-bg" d="M -335.24319333928815,238.20529196921296 L -336.7263680576193,246.61679378460124 L -339.64765198098786,254.642955399872 L -343.9182833756231,262.039905955779 L -349.40850126764286,268.58289285271854 L -355.95148816458243,274.0731107447383 L -363.3484387204894,278.34374213937355 L -371.37460033576014,281.26502606274204 L -379.78610215114844,282.74820078107325 L -388.32736494041893,282.74820078107325 L -396.7388667558072,281.2650260627421 L -404.76502837107796,278.3437421393736 L -412.16197892698494,274.0731107447383 L -418.7049658239245,268.58289285271854 L -424.19518371594427,262.039905955779 L -428.4658151105795,254.64295539987202 L -431.387099033948,246.61679378460124 L -432.8702737522792,238.20529196921296 L -432.8702737522792,229.66402917994247 L -431.38709903394806,221.25252736455423 L -428.46581511057957,213.22636574928345 L -424.19518371594427,205.82941519337646 L -418.7049658239245,199.2864282964369 L -412.16197892698494,193.79621040441714 L -404.76502837107796,189.5255790097819 L -396.7388667558072,186.60429508641337 L -388.32736494041893,185.1211203680822 L -379.78610215114844,185.1211203680822 L -371.3746003357602,186.60429508641337 L -363.3484387204894,189.5255790097819 L -355.9514881645825,193.79621040441708 L -349.40850126764286,199.2864282964369 L -343.9182833756231,205.82941519337643 L -339.6476519809878,213.22636574928345 L -336.7263680576193,221.2525273645542 L -335.24319333928815,229.66402917994247 Z" fill="#000"/><path class="hex-border" d="M -335.24319333928815,238.20529196921296 L -336.7263680576193,246.61679378460124 L -339.64765198098786,254.642955399872 L -343.9182833756231,262.039905955779 L -349.40850126764286,268.58289285271854 L -355.95148816458243,274.0731107447383 L -363.3484387204894,278.34374213937355 L -371.37460033576014,281.26502606274204 L -379.78610215114844,282.74820078107325 L -388.32736494041893,282.74820078107325 L -396.7388667558072,281.2650260627421 L -404.76502837107796,278.3437421393736 L -412.16197892698494,274.0731107447383 L -418.7049658239245,268.58289285271854 L -424.19518371594427,262.039905955779 L -428.4658151105795,254.64295539987202 L -431.387099033948,246.61679378460124 L -432.8702737522792,238.20529196921296 L -432.8702737522792,229.66402917994247 L -431.38709903394806,221.25252736455423 L -428.46581511057957,213.22636574928345 L -424.19518371594427,205.82941519337646 L -418.7049658239245,199.2864282964369 L -412.16197892698494,193.79621040441714 L -404.76502837107796,189.5255790097819 L -396.7388667558072,186.60429508641337 L -388.32736494041893,185.1211203680822 L -379.78610215114844,185.1211203680822 L -371.3746003357602,186.60429508641337 L -363.3484387204894,189.5255790097819 L -355.9514881645825,193.79621040441708 L -349.40850126764286,199.2864282964369 L -343.9182833756231,205.82941519337643 L -339.6476519809878,213.22636574928345 L -336.7263680576193,221.2525273645542 L -335.24319333928815,229.66402917994247 Z" style="stroke-opacity: 1 !important; stroke-width: 3.5 !important; stroke-dasharray: none; animation: none; " fill="none" stroke="#ff00a0" stroke-opacity=".3" stroke-width="2.5"/><g class="lock-icon" transform="translate(-384.0567335457837,233.93466057457772) scale(.8)"><path d="M -4 -2 v-3 a 4 4 0 0 1 8 0 v3 M -5 -2 h10 v8 h-10 z" fill="none" stroke="#aaa" stroke-width="1.8"/></g><text class="skill-text" x="-384.0567335457837" y="237.60132724124438" text-anchor="middle" style="font-size:11px;fill:#fff;">SurrealDB</text></g><g class="node skill revealed-node interactive unlocked energy" style="--skill-color:#2ecc71" data-skill-id="Bun" data-name="Bun" data-color="#2ecc71" data-level="95" data-rarity="common" data-parents="Tools" onclick="handleClick(this)"><path class="hex-bg" d="M -408.6330344697623,36.277721750784785 L -409.72271385465865,42.45760063555984 L -411.86896326774576,48.35437243453427 L -415.00657000666143,53.788866720506746 L -419.04019947834945,58.5959591345848 L -423.8472918924275,62.6295886062728 L -429.28178617839995,65.76719534518848 L -435.1785579773744,67.91344475827555 L -441.35843686214946,69.00312414317193 L -447.6336503399808,69.00312414317193 L -453.8135292247559,67.91344475827555 L -459.7103010237303,65.7671953451885 L -465.1447953097028,62.629588606272804 L -469.9518877237808,58.5959591345848 L -473.98551719546884,53.78886672050676 L -477.1231239343845,48.354372434534284 L -479.26937334747157,42.45760063555985 L -480.35905273236796,36.277721750784785 L -480.35905273236796,30.002508272953406 L -479.2693733474716,23.82262938817836 L -477.1231239343845,17.92585758920392 L -473.98551719546884,12.49136330323143 L -469.9518877237809,7.684270889153396 L -465.14479530970283,3.650641417465394 L -459.7103010237303,0.5130346785497011 L -453.8135292247559,-1.6332147345373684 L -447.6336503399808,-2.7228941194337466 L -441.35843686214946,-2.7228941194337466 L -435.1785579773744,-1.6332147345373684 L -429.28178617839995,0.5130346785497011 L -423.8472918924275,3.6506414174653656 L -419.04019947834945,7.684270889153375 L -415.00657000666143,12.491363303231417 L -411.86896326774576,17.925857589203922 L -409.72271385465865,23.82262938817835 L -408.6330344697623,30.002508272953392 Z" fill="#000"/><path class="hex-border" d="M -408.6330344697623,36.277721750784785 L -409.72271385465865,42.45760063555984 L -411.86896326774576,48.35437243453427 L -415.00657000666143,53.788866720506746 L -419.04019947834945,58.5959591345848 L -423.8472918924275,62.6295886062728 L -429.28178617839995,65.76719534518848 L -435.1785579773744,67.91344475827555 L -441.35843686214946,69.00312414317193 L -447.6336503399808,69.00312414317193 L -453.8135292247559,67.91344475827555 L -459.7103010237303,65.7671953451885 L -465.1447953097028,62.629588606272804 L -469.9518877237808,58.5959591345848 L -473.98551719546884,53.78886672050676 L -477.1231239343845,48.354372434534284 L -479.26937334747157,42.45760063555985 L -480.35905273236796,36.277721750784785 L -480.35905273236796,30.002508272953406 L -479.2693733474716,23.82262938817836 L -477.1231239343845,17.92585758920392 L -473.98551719546884,12.49136330323143 L -469.9518877237809,7.684270889153396 L -465.14479530970283,3.650641417465394 L -459.7103010237303,0.5130346785497011 L -453.8135292247559,-1.6332147345373684 L -447.6336503399808,-2.7228941194337466 L -441.35843686214946,-2.7228941194337466 L -435.1785579773744,-1.6332147345373684 L -429.28178617839995,0.5130346785497011 L -423.8472918924275,3.6506414174653656 L -419.04019947834945,7.684270889153375 L -415.00657000666143,12.491363303231417 L -411.86896326774576,17.925857589203922 L -409.72271385465865,23.82262938817835 L -408.6330344697623,30.002508272953392 Z" style="stroke-opacity: 1 !important; stroke-width: 3.5 !important; stroke-dasharray: none; animation: flow 1s linear infinite normal; " fill="none" stroke="#2ecc71" stroke-opacity=".3" stroke-width="2.5"/><g class="lock-icon" transform="translate(-444.49604360106514,33.14011501186909) scale(.8)"><path d="M -4 -2 v-3 a 4 4 0 0 1 8 0 v3 M -5 -2 h10 v8 h-10 z" fill="none" stroke="#aaa" stroke-width="1.8"/></g><text class="skill-text" x="-444.49604360106514" y="36.806781678535756" text-anchor="middle" style="font-size:11px;fill:#fff;">Bun</text></g><g class="node skill revealed-node interactive unlocked energy" style="--skill-color:#2ecc71" data-skill-id="Git" data-name="Git" data-color="#2ecc71" data-level="90" data-rarity="common" data-parents="Tools" onclick="handleClick(this)"><path class="hex-bg" d="M -304.26257321113366,-284.94152863228487 L -305.35225259603,-278.7616497475098 L -307.4985020091171,-272.86487794853537 L -310.63610874803277,-267.4303836625629 L -314.6697382197208,-262.62329124848486 L -319.47683063379884,-258.58966177679685 L -324.9113249197713,-255.45205503788117 L -330.80809671874573,-253.3058056247941 L -336.9879756035208,-252.2161262398977 L -343.26318908135215,-252.2161262398977 L -349.4430679661272,-253.3058056247941 L -355.33983976510166,-255.45205503788117 L -360.7743340510741,-258.58966177679685 L -365.58142646515216,-262.62329124848486 L -369.6150559368402,-267.43038366256286 L -372.75266267575586,-272.86487794853537 L -374.8989120888429,-278.7616497475098 L -375.9885914737393,-284.94152863228487 L -375.9885914737393,-291.21674211011623 L -374.89891208884296,-297.3966209948913 L -372.75266267575586,-303.29339279386573 L -369.6150559368402,-308.7278870798382 L -365.5814264651522,-313.53497949391624 L -360.77433405107416,-317.56860896560426 L -355.33983976510166,-320.70621570451993 L -349.4430679661272,-322.85246511760704 L -343.26318908135215,-323.94214450250337 L -336.9879756035208,-323.94214450250337 L -330.80809671874573,-322.85246511760704 L -324.9113249197713,-320.70621570451993 L -319.47683063379884,-317.56860896560426 L -314.6697382197208,-313.53497949391624 L -310.63610874803277,-308.72788707983824 L -307.4985020091171,-303.29339279386573 L -305.35225259603,-297.3966209948913 L -304.26257321113366,-291.21674211011623 Z" fill="#000"/><path class="hex-border" d="M -304.26257321113366,-284.94152863228487 L -305.35225259603,-278.7616497475098 L -307.4985020091171,-272.86487794853537 L -310.63610874803277,-267.4303836625629 L -314.6697382197208,-262.62329124848486 L -319.47683063379884,-258.58966177679685 L -324.9113249197713,-255.45205503788117 L -330.80809671874573,-253.3058056247941 L -336.9879756035208,-252.2161262398977 L -343.26318908135215,-252.2161262398977 L -349.4430679661272,-253.3058056247941 L -355.33983976510166,-255.45205503788117 L -360.7743340510741,-258.58966177679685 L -365.58142646515216,-262.62329124848486 L -369.6150559368402,-267.43038366256286 L -372.75266267575586,-272.86487794853537 L -374.8989120888429,-278.7616497475098 L -375.9885914737393,-284.94152863228487 L -375.9885914737393,-291.21674211011623 L -374.89891208884296,-297.3966209948913 L -372.75266267575586,-303.29339279386573 L -369.6150559368402,-308.7278870798382 L -365.5814264651522,-313.53497949391624 L -360.77433405107416,-317.56860896560426 L -355.33983976510166,-320.70621570451993 L -349.4430679661272,-322.85246511760704 L -343.26318908135215,-323.94214450250337 L -336.9879756035208,-323.94214450250337 L -330.80809671874573,-322.85246511760704 L -324.9113249197713,-320.70621570451993 L -319.47683063379884,-317.56860896560426 L -314.6697382197208,-313.53497949391624 L -310.63610874803277,-308.72788707983824 L -307.4985020091171,-303.29339279386573 L -305.35225259603,-297.3966209948913 L -304.26257321113366,-291.21674211011623 Z" style="stroke-opacity: 1 !important; stroke-width: 3.5 !important; stroke-dasharray: none; animation: none; " fill="none" stroke="#2ecc71" stroke-opacity=".3" stroke-width="2.5"/><g class="lock-icon" transform="translate(-340.1255823424365,-288.07913537120055) scale(.8)"><path d="M -4 -2 v-3 a 4 4 0 0 1 8 0 v3 M -5 -2 h10 v8 h-10 z" fill="none" stroke="#aaa" stroke-width="1.8"/></g><text class="skill-text" x="-340.1255823424365" y="-284.41246870453386" text-anchor="middle" style="font-size:11px;fill:#fff;">Git</text></g></svg>