<svg viewBox="-634.835160869859 -662.2410929762405 1316.3070940203079 1288.8279922411577" xmlns="http://www.w3.org/2000/svg"><defs><pattern id="grid" width="80" height="auto" patternUnits="userSpaceOnUse"><path d="M 80 0 L 0 0 0 80" fill="none" stroke="rgba(255,255,255,0.08)" stroke-width="1.5"/></pattern></defs><style>text{font-family:"Segoe UI",sans-serif;fill:#c9d1d9;font-size:13px;letter-spacing:1.5px;pointer-events:none;}.node{transform-origin:center;transform-box:fill-box;}.line{stroke-dasharray:1000;stroke-dashoffset:1000;}.hidden-node{opacity:0;pointer-events:none;transform:scale(0.5);transition:all 0.5s cubic-bezier(0.175,0.885,0.32,1.275);}.revealed-node{opacity:1;pointer-events:auto;transform:scale(1);}.hidden-line{opacity:0;}.revealed-line{opacity:1!important;animation:dL 1.5s forwards;}.skill-line{transition:all .4s;stroke-opacity:.15;}@keyframes dL{to{stroke-dashoffset:0;}}.energy{stroke-dasharray:6 12;animation:fL 3s linear infinite;}@keyframes fL{to{stroke-dashoffset:-36;}}.interactive{cursor:pointer;}.locked{filter:grayscale(1) brightness(.5);transition:all .4s;}.locked:hover{filter:grayscale(.2) brightness(1);transform:scale(1.08);}.unlocked{filter:drop-shadow(0 0 15px var(--skill-color));}.unlocked-anim{animation:uP .8s forwards;}@keyframes uP{0%{transform:scale(1);}50%{transform:scale(1.5);}100%{transform:scale(1);}}.unlocked .hex-bg{fill:var(--skill-color)!important;fill-opacity:.2!important;}.unlocked .hex-border{stroke-opacity:1!important;stroke-width:3.5!important;}.unlocked .skill-text{fill:var(--skill-color)!important;font-weight:bold;text-shadow:0 0 10px var(--skill-color);}.unlocked .lock-icon{opacity:0;}.hud-box{fill:rgba(0,0,15,.96);stroke:#58a6ff;stroke-width:1.5;}.skill.locked .hex-border { stroke: #444 !important; }
        .skill.locked .skill-text { fill: #666 !important; }
        .revealed-line.join-line, .join-line.energy { 
            animation-name: flow;
            animation-duration: var(--anim-speed, 0.6s);
            animation-timing-function: linear;
            animation-iteration-count: infinite;
        }
        @keyframes flow { to { stroke-dashoffset: -40; } }
    </style><rect x="-634.835160869859" y="-662.2410929762405" width="1316.3070940203079" height="1288.8279922411577" fill="#0b0e14"/><rect x="-634.835160869859" y="-662.2410929762405" width="1316.3070940203079" height="1288.8279922411577" fill="url(#grid)"/><g id="core-node" class="node interactive" onclick="handleClick(this)"><path d="M 3.980102097228898e-15,-65 L 61.81867355918498,-20.08610463437158 L 38.20604139901075,52.58610463437159 L -38.20604139901074,52.58610463437159 L -61.81867355918499,-20.086104634371573 Z" fill="#000" stroke="#58a6ff" stroke-width="4" filter="drop-shadow(0 0 15px #58a6ff)"/><path d="M 3.429011037612589e-15,-56 L 53.2591649125286,-17.304951684997054 L 32.915974128378494,45.30495168499706 L -32.91597412837849,45.30495168499706 L -53.259164912528604,-17.304951684997047 Z" fill="none" stroke="#58a6ff" stroke-opacity=".5" stroke-width="2" class="energy" /><text x="0" y="-100" text-anchor="middle" font-weight="bold" fill="#58a6ff" style="font-size:18px;letter-spacing:7px;">ORIGIN</text></g><path class="line cat-line revealed-line" d="M 3.980102097228898e-15 -65 L 2.3696915563501286e-14 -243" stroke="#3498db" stroke-opacity=".5" stroke-width="3" fill="none"/><path class="line cat-line revealed-line" d="M 61.81867355918498 -20.08610463437158 L 227.62666308759847 -99.85311699068849" stroke="#9b59b6" stroke-opacity=".5" stroke-width="3" fill="none"/><path class="line cat-line revealed-line" d="M 38.20604139901075 52.58610463437159 L 142.83181630707097 196.59112963311225" stroke="#e67e22" stroke-opacity=".5" stroke-width="3" fill="none"/><path class="line cat-line revealed-line" d="M -38.20604139901074 52.58610463437159 L -139.3051047933161 191.73702766686256" stroke="#1abc9c" stroke-opacity=".5" stroke-width="3" fill="none"/><path class="line cat-line revealed-line" d="M -61.81867355918499 -20.086104634371573 L -231.10673345972236 -75.0911296331122" stroke="#2ecc71" stroke-opacity=".5" stroke-width="3" fill="none"/><g class="node cat-node revealed-node interactive" data-name="Frontend" onclick="handleClick(this)"><path d="M 2.3696915563501286e-14,-243 L -68.47606917325103,-292.75077640500376 L -42.32053816505805,-373.24922359499624 L 42.320538165058075,-373.24922359499624 L 68.47606917325108,-292.7507764050038 Z" fill="#000" stroke="#3498db" stroke-width="4" filter="drop-shadow(0 0 10px #3498db)"/><text x="1.9288187086570814e-14" y="-312" text-anchor="middle" font-weight="bold" fill="#3498db" style="font-size:9px;">FRONTEND</text></g><g class="node cat-node revealed-node interactive" data-name="Frameworks" onclick="handleClick(this)"><path d="M 227.62666308759847,-99.85311699068849 L 302.0955663955534,-169.29649277348332 L 371.5389421783483,-94.8275894655284 L 297.0700388703934,-25.38421368273353 Z" fill="#000" stroke="#9b59b6" stroke-width="4" filter="drop-shadow(0 0 10px #9b59b6)"/><text x="299.58280263297337" y="-94.34035322810843" text-anchor="middle" font-weight="bold" fill="#9b59b6" style="font-size:9px;">FRAMEWORKS</text></g><g class="node cat-node revealed-node interactive" data-name="Backend" onclick="handleClick(this)"><path d="M 142.83181630707097,196.59112963311225 L 256.75793093864473,247.31430387283734 L 155.86731617067142,320.6156261783757 Z" fill="#000" stroke="#e67e22" stroke-width="4" filter="drop-shadow(0 0 10px #e67e22)"/><text x="185.15235447212905" y="257.8403532281085" text-anchor="middle" font-weight="bold" fill="#e67e22" style="font-size:9px;">BACKEND</text></g><g class="node cat-node revealed-node interactive" data-name="Databases" onclick="handleClick(this)"><path d="M -139.3051047933161,191.73702766686256 L -153.4268963122165,326.0968989242313 L -262.7250623108543,246.68713309323147 Z" fill="#000" stroke="#1abc9c" stroke-width="4" filter="drop-shadow(0 0 10px #1abc9c)"/><text x="-185.152354472129" y="257.8403532281085" text-anchor="middle" font-weight="bold" fill="#1abc9c" style="font-size:9px;">DATABASES</text></g><g class="node cat-node revealed-node interactive" data-name="Tools" onclick="handleClick(this)"><path d="M -231.10673345972236,-75.0911296331122 L -353.08923006734574,-49.162949570270555 L -314.55244437185206,-167.7669804809424 Z" fill="#000" stroke="#2ecc71" stroke-width="4" filter="drop-shadow(0 0 10px #2ecc71)"/><text x="-299.5828026329734" y="-94.3403532281084" text-anchor="middle" font-weight="bold" fill="#2ecc71" style="font-size:9px;">TOOLS</text></g><path data-link="TS" data-parent="Frontend" class="skill-line-base line revealed-line" style="stroke-dasharray: none; animation: none; " d="M -68.47606917325103 -292.75077640500376 L -144.11451117704587 -266.52347837683516" stroke="#3178c6" stroke-width="3.5" stroke-opacity="0.15" fill="none"/><path data-link="HTML" data-parent="Frontend" class="skill-line-base line revealed-line" style="stroke-dasharray: none; animation: none; " d="M -42.32053816505805 -373.24922359499624 L -89.76962282669874 -437.6665316475707" stroke="#e34f26" stroke-width="3.5" stroke-opacity="0.15" fill="none"/><path data-link="CSS" data-parent="Frontend" class="skill-line-base line revealed-line" style="stroke-dasharray: none; animation: none; " d="M 42.320538165058075 -373.24922359499624 L 80.99615380369693 -447.24109297624045" stroke="#1572b6" stroke-width="3.5" stroke-opacity="0.15" fill="none"/><path data-link="Astro" data-parent="Frontend" class="skill-line-base line revealed-line" style="stroke-dasharray: none; animation: none; " d="M 68.47606917325108 -292.7507764050038 L 212.6666109819556 -284.4941953846718" stroke="#3498db" stroke-width="3.5" stroke-opacity="0.15" fill="none"/><path data-link="Astro" data-parent="Frameworks" class="skill-line-base line revealed-line" style="stroke-dasharray: none; animation: none; " d="M 302.0955663955534 -169.29649277348332 L 266.36018601659083 -253.4941953846718" stroke="#9b59b6" stroke-width="3.5" stroke-opacity="0.15" fill="none"/><path data-link="Tauri" data-parent="Frameworks" class="skill-line-base line revealed-line" style="stroke-dasharray: none; animation: none; " d="M 297.0700388703934 -25.38421368273353 L 293.23109423311837 53.54877728936701" stroke="#ffc131" stroke-width="3.5" stroke-opacity="0.15" fill="none"/><path data-link="Tailwind" data-parent="Frameworks" class="skill-line-base line revealed-line" style="stroke-dasharray: none; animation: none; " d="M 371.5389421783483 -94.8275894655284 L 443.3668153839335 -68.98864482825336" stroke="#38bdf8" stroke-width="3.5" stroke-opacity="0.15" fill="none"/><path data-link="Rust" data-parent="Backend" class="skill-line-base line revealed-line" style="stroke-dasharray: none; animation: none; " d="M 256.75793093864473 247.31430387283734 L 340.1745773156216 250.81617291339538" stroke="#dea584" stroke-width="3.5" stroke-opacity="0.15" fill="none"/><path data-link="Python" data-parent="Backend" class="skill-line-base line revealed-line" style="stroke-dasharray: none; animation: none; " d="M 155.86731617067142 320.6156261783757 L 125.07268806977645 391.19746954685235" stroke="#e67e22" stroke-width="3.5" stroke-opacity="0.15" fill="none"/><path data-link="Supabase" data-parent="Databases" class="skill-line-base line revealed-line" style="stroke-dasharray: none; animation: none; " d="M -153.4268963122165 326.0968989242313 L -125.5905960435064 390.33458778345135" stroke="#3ecf8e" stroke-width="3.5" stroke-opacity="0.15" fill="none"/><path data-link="SurrealDB" data-parent="Databases" class="skill-line-base line revealed-line" style="stroke-dasharray: none; animation: none; " d="M -262.7250623108543 246.68713309323147 L -329.2860987834193 238.93669907193885" stroke="#ff00a0" stroke-width="3.5" stroke-opacity="0.15" fill="none"/><path data-link="Bun" data-parent="Tools" class="skill-line-base line revealed-line" style="stroke-dasharray: none; animation: flow 1s linear infinite normal; " d="M -353.08923006734574 -49.162949570270555 L -413.6219574342626 3.228213693607497" stroke="#2ecc71" stroke-width="3.5" stroke-opacity="0.15" fill="none"/><path data-link="Git" data-parent="Tools" class="skill-line-base line revealed-line" style="stroke-dasharray: none; animation: none; " d="M -314.55244437185206 -167.7669804809424 L -329.65815900872997 -246.385441772989" stroke="#2ecc71" stroke-width="3.5" stroke-opacity="0.15" fill="none"/><path id="epic-join-Tailwind--0" data-link="Tailwind" data-source="Tailwind" class="join-line skill-line line revealed-line" style="animation: none; stroke-dasharray: 8 6;" d="M 481.4719331504488 -134.98864482825337 Q 416.09545139598333 -394.28950226240954, 132.95767803076325 -447.24109297624045" stroke="#38bdf8" stroke-opacity="0.1" stroke-width="3" filter="drop-shadow(0 0 6px #38bdf8)" fill="none"/><path id="epic-join-Rust--0" data-link="Rust" data-source="Rust" class="join-line skill-line line revealed-line" style="animation: none; stroke-dasharray: 8 6;" d="M 366.15533942915476 205.81617291339538 Q 329.69321683113657 160.6824751013812, 293.23109423311837 115.54877728936701" stroke="#dea584" stroke-opacity="0.1" stroke-width="3" filter="drop-shadow(0 0 6px #dea584)" fill="none"/><g class="node skill revealed-node interactive unlocked energy" style="--skill-color:#3178c6" data-skill-id="TS" data-name="TS" data-color="#3178c6" data-level="80" data-rarity="common" data-parents="Frontend" onclick="handleClick(this)"><path class="hex-bg" d="M -143.20644502296554,-256.1442347413298 L -144.11451117704587,-250.99433567068394 L -145.9030523546184,-246.08035917153856 L -148.51772463704816,-241.55161393322817 L -151.87908253012148,-237.54570358816312 L -155.88499287518653,-234.1843456950898 L -160.41373811349692,-231.56967341266005 L -165.32771461264227,-229.7811322350875 L -170.47761368328815,-228.87306608100718 L -175.70695824814766,-228.87306608100718 L -180.85685731879352,-229.7811322350875 L -185.7708338179389,-231.56967341266005 L -190.29957905624929,-234.1843456950898 L -194.30548940131433,-237.54570358816312 L -197.66684729438765,-241.55161393322817 L -200.2815195768174,-246.08035917153856 L -202.07006075438994,-250.9943356706839 L -202.97812690847027,-256.1442347413298 L -202.97812690847027,-261.3735793061893 L -202.07006075438997,-266.52347837683516 L -200.2815195768174,-271.4374548759805 L -197.66684729438765,-275.9662001142909 L -194.30548940131433,-279.972110459356 L -190.29957905624929,-283.3334683524293 L -185.7708338179389,-285.94814063485904 L -180.85685731879352,-287.7366818124316 L -175.70695824814766,-288.6447479665119 L -170.47761368328818,-288.6447479665119 L -165.3277146126423,-287.7366818124316 L -160.41373811349692,-285.94814063485904 L -155.88499287518655,-283.3334683524293 L -151.87908253012148,-279.972110459356 L -148.51772463704816,-275.9662001142909 L -145.9030523546184,-271.4374548759805 L -144.11451117704587,-266.52347837683516 L -143.20644502296554,-261.3735793061893 Z" fill="#000"/><path class="hex-border" d="M -143.20644502296554,-256.1442347413298 L -144.11451117704587,-250.99433567068394 L -145.9030523546184,-246.08035917153856 L -148.51772463704816,-241.55161393322817 L -151.87908253012148,-237.54570358816312 L -155.88499287518653,-234.1843456950898 L -160.41373811349692,-231.56967341266005 L -165.32771461264227,-229.7811322350875 L -170.47761368328815,-228.87306608100718 L -175.70695824814766,-228.87306608100718 L -180.85685731879352,-229.7811322350875 L -185.7708338179389,-231.56967341266005 L -190.29957905624929,-234.1843456950898 L -194.30548940131433,-237.54570358816312 L -197.66684729438765,-241.55161393322817 L -200.2815195768174,-246.08035917153856 L -202.07006075438994,-250.9943356706839 L -202.97812690847027,-256.1442347413298 L -202.97812690847027,-261.3735793061893 L -202.07006075438997,-266.52347837683516 L -200.2815195768174,-271.4374548759805 L -197.66684729438765,-275.9662001142909 L -194.30548940131433,-279.972110459356 L -190.29957905624929,-283.3334683524293 L -185.7708338179389,-285.94814063485904 L -180.85685731879352,-287.7366818124316 L -175.70695824814766,-288.6447479665119 L -170.47761368328818,-288.6447479665119 L -165.3277146126423,-287.7366818124316 L -160.41373811349692,-285.94814063485904 L -155.88499287518655,-283.3334683524293 L -151.87908253012148,-279.972110459356 L -148.51772463704816,-275.9662001142909 L -145.9030523546184,-271.4374548759805 L -144.11451117704587,-266.52347837683516 L -143.20644502296554,-261.3735793061893 Z" style="stroke-opacity: 1 !important; stroke-width: 3.5 !important; stroke-dasharray: none; animation: none; " fill="none" stroke="#3178c6" stroke-opacity=".3" stroke-width="2.5"/><g class="lock-icon" transform="translate(-173.0922859657179,-258.75890702375955) scale(.8)"><path d="M -4 -2 v-3 a 4 4 0 0 1 8 0 v3 M -5 -2 h10 v8 h-10 z" fill="none" stroke="#aaa" stroke-width="1.8"/></g><text class="skill-text" x="-173.0922859657179" y="-255.75890702375955" text-anchor="middle" style="font-size:9px;fill:#aaa;">TS</text></g><g class="node skill revealed-node interactive unlocked energy" style="--skill-color:#e34f26" data-skill-id="HTML" data-name="HTML" data-color="#e34f26" data-level="90" data-rarity="common" data-parents="Frontend" onclick="handleClick(this)"><path class="hex-bg" d="M -77.09107497447775,-459.6264206938107 L -77.99914112855807,-454.47652162316484 L -79.78768230613062,-449.5625451240195 L -82.40235458856036,-445.0337998857091 L -85.76371248163369,-441.027889540644 L -89.76962282669874,-437.6665316475707 L -94.29836806500913,-435.05185936514096 L -99.21234456415449,-433.2633181875684 L -104.36224363480036,-432.3552520334881 L -109.59158819965985,-432.3552520334881 L -114.74148727030574,-433.2633181875684 L -119.6554637694511,-435.05185936514096 L -124.1842090077615,-437.6665316475707 L -128.19011935282654,-441.027889540644 L -131.55147724589986,-445.0337998857091 L -134.1661495283296,-449.56254512401944 L -135.95469070590215,-454.47652162316484 L -136.86275685998248,-459.6264206938107 L -136.86275685998248,-464.8557652586702 L -135.95469070590218,-470.00566432931606 L -134.1661495283296,-474.9196408284614 L -131.55147724589986,-479.44838606677183 L -128.19011935282654,-483.4542964118369 L -124.18420900776151,-486.8156543049102 L -119.65546376945112,-489.43032658733995 L -114.74148727030574,-491.2188677649125 L -109.59158819965987,-492.1269339189928 L -104.36224363480038,-492.1269339189928 L -99.2123445641545,-491.2188677649125 L -94.29836806500913,-489.43032658733995 L -89.76962282669875,-486.8156543049102 L -85.76371248163369,-483.4542964118369 L -82.40235458856037,-479.44838606677183 L -79.78768230613062,-474.9196408284614 L -77.99914112855807,-470.00566432931606 L -77.09107497447775,-464.8557652586702 Z" fill="#000"/><path class="hex-border" d="M -77.09107497447775,-459.6264206938107 L -77.99914112855807,-454.47652162316484 L -79.78768230613062,-449.5625451240195 L -82.40235458856036,-445.0337998857091 L -85.76371248163369,-441.027889540644 L -89.76962282669874,-437.6665316475707 L -94.29836806500913,-435.05185936514096 L -99.21234456415449,-433.2633181875684 L -104.36224363480036,-432.3552520334881 L -109.59158819965985,-432.3552520334881 L -114.74148727030574,-433.2633181875684 L -119.6554637694511,-435.05185936514096 L -124.1842090077615,-437.6665316475707 L -128.19011935282654,-441.027889540644 L -131.55147724589986,-445.0337998857091 L -134.1661495283296,-449.56254512401944 L -135.95469070590215,-454.47652162316484 L -136.86275685998248,-459.6264206938107 L -136.86275685998248,-464.8557652586702 L -135.95469070590218,-470.00566432931606 L -134.1661495283296,-474.9196408284614 L -131.55147724589986,-479.44838606677183 L -128.19011935282654,-483.4542964118369 L -124.18420900776151,-486.8156543049102 L -119.65546376945112,-489.43032658733995 L -114.74148727030574,-491.2188677649125 L -109.59158819965987,-492.1269339189928 L -104.36224363480038,-492.1269339189928 L -99.2123445641545,-491.2188677649125 L -94.29836806500913,-489.43032658733995 L -89.76962282669875,-486.8156543049102 L -85.76371248163369,-483.4542964118369 L -82.40235458856037,-479.44838606677183 L -79.78768230613062,-474.9196408284614 L -77.99914112855807,-470.00566432931606 L -77.09107497447775,-464.8557652586702 Z" style="stroke-opacity: 1 !important; stroke-width: 3.5 !important; stroke-dasharray: none; animation: none; " fill="none" stroke="#e34f26" stroke-opacity=".3" stroke-width="2.5"/><g class="lock-icon" transform="translate(-106.97691591723012,-462.24109297624045) scale(.8)"><path d="M -4 -2 v-3 a 4 4 0 0 1 8 0 v3 M -5 -2 h10 v8 h-10 z" fill="none" stroke="#aaa" stroke-width="1.8"/></g><text class="skill-text" x="-106.97691591723012" y="-459.24109297624045" text-anchor="middle" style="font-size:9px;fill:#aaa;">HTML</text></g><g class="node skill revealed-node interactive unlocked energy" style="--skill-color:#1572b6" data-skill-id="CSS" data-name="CSS" data-color="#1572b6" data-level="85" data-rarity="common" data-parents="Frontend" onclick="handleClick(this)"><path class="hex-bg" d="M 132.95767803076325,-447.24109297624045 L 106.97691591723009,-432.24109297624045 L 80.99615380369693,-447.24109297624045 L 80.99615380369693,-477.24109297624045 L 106.97691591723009,-492.24109297624045 L 132.95767803076325,-477.24109297624045 Z" fill="#000"/><path class="hex-border" d="M 132.95767803076325,-447.24109297624045 L 106.97691591723009,-432.24109297624045 L 80.99615380369693,-447.24109297624045 L 80.99615380369693,-477.24109297624045 L 106.97691591723009,-492.24109297624045 L 132.95767803076325,-477.24109297624045 Z" style="stroke-opacity: 1 !important; stroke-width: 3.5 !important; stroke-dasharray: none; animation: none; " fill="none" stroke="#1572b6" stroke-opacity=".3" stroke-width="2.5"/><g class="lock-icon" transform="translate(106.97691591723009,-462.24109297624045) scale(.8)"><path d="M -4 -2 v-3 a 4 4 0 0 1 8 0 v3 M -5 -2 h10 v8 h-10 z" fill="none" stroke="#aaa" stroke-width="1.8"/></g><text class="skill-text" x="106.97691591723009" y="-459.24109297624045" text-anchor="middle" style="font-size:9px;fill:#aaa;">CSS</text></g><g class="node skill revealed-node interactive unlocked energy" style="--skill-color:#3498db" data-skill-id="Astro" data-name="Astro" data-color="#3498db" data-level="90" data-rarity="common" data-parents="Frontend,Frameworks" onclick="handleClick(this)"><path class="hex-bg" d="M 266.36018601659083,-253.4941953846718 L 239.51339849927322,-237.9941953846718 L 212.6666109819556,-253.4941953846718 L 212.6666109819556,-284.4941953846718 L 239.51339849927322,-299.9941953846718 L 266.36018601659083,-284.4941953846718 Z" fill="#000"/><path class="hex-border" d="M 266.36018601659083,-253.4941953846718 L 239.51339849927322,-237.9941953846718 L 212.6666109819556,-253.4941953846718 L 212.6666109819556,-284.4941953846718 L 239.51339849927322,-299.9941953846718 L 266.36018601659083,-284.4941953846718 Z" style="stroke-opacity: 1 !important; stroke-width: 3.5 !important; stroke-dasharray: none; animation: none; " fill="none" stroke="#3498db" stroke-opacity=".3" stroke-width="2.5"/><g class="lock-icon" transform="translate(239.51339849927322,-268.9941953846718) scale(.8)"><path d="M -4 -2 v-3 a 4 4 0 0 1 8 0 v3 M -5 -2 h10 v8 h-10 z" fill="none" stroke="#aaa" stroke-width="1.8"/></g><text class="skill-text" x="239.51339849927322" y="-265.9941953846718" text-anchor="middle" style="font-size:9px;fill:#aaa;">Astro</text></g><g class="node skill revealed-node interactive unlocked energy" style="--skill-color:#ffc131" data-skill-id="Tauri" data-name="Tauri" data-color="#ffc131" data-level="50" data-rarity="common" data-parents="Frameworks" onclick="handleClick(this)"><path class="hex-bg" d="M 320.07788175043595,100.04877728936701 L 293.23109423311837,115.54877728936701 L 266.3843067158008,100.04877728936702 L 266.3843067158008,69.04877728936702 L 293.23109423311837,53.54877728936701 L 320.07788175043595,69.04877728936702 Z" fill="#000"/><path class="hex-border" d="M 320.07788175043595,100.04877728936701 L 293.23109423311837,115.54877728936701 L 266.3843067158008,100.04877728936702 L 266.3843067158008,69.04877728936702 L 293.23109423311837,53.54877728936701 L 320.07788175043595,69.04877728936702 Z" style="stroke-opacity: 1 !important; stroke-width: 3.5 !important; stroke-dasharray: none; animation: none; " fill="none" stroke="#ffc131" stroke-opacity=".3" stroke-width="2.5"/><g class="lock-icon" transform="translate(293.23109423311837,84.54877728936701) scale(.8)"><path d="M -4 -2 v-3 a 4 4 0 0 1 8 0 v3 M -5 -2 h10 v8 h-10 z" fill="none" stroke="#aaa" stroke-width="1.8"/></g><text class="skill-text" x="293.23109423311837" y="87.54877728936701" text-anchor="middle" style="font-size:9px;fill:#aaa;">Tauri</text></g><g class="node skill revealed-node interactive unlocked energy" style="--skill-color:#38bdf8" data-skill-id="Tailwind" data-name="Tailwind" data-color="#38bdf8" data-level="85" data-rarity="common" data-parents="Frameworks" onclick="handleClick(this)"><path class="hex-bg" d="M 519.5770509169641,-68.98864482825337 L 481.4719331504488,-46.98864482825337 L 443.3668153839335,-68.98864482825336 L 443.3668153839335,-112.98864482825336 L 481.4719331504488,-134.98864482825337 L 519.5770509169641,-112.98864482825336 Z" fill="#000"/><path class="hex-border" d="M 519.5770509169641,-68.98864482825337 L 481.4719331504488,-46.98864482825337 L 443.3668153839335,-68.98864482825336 L 443.3668153839335,-112.98864482825336 L 481.4719331504488,-134.98864482825337 L 519.5770509169641,-112.98864482825336 Z" style="stroke-opacity: 1 !important; stroke-width: 3.5 !important; stroke-dasharray: none; animation: none; " fill="none" stroke="#38bdf8" stroke-opacity=".3" stroke-width="2.5"/><g class="lock-icon" transform="translate(481.4719331504488,-90.98864482825337) scale(.8)"><path d="M -4 -2 v-3 a 4 4 0 0 1 8 0 v3 M -5 -2 h10 v8 h-10 z" fill="none" stroke="#aaa" stroke-width="1.8"/></g><text class="skill-text" x="481.4719331504488" y="-87.98864482825337" text-anchor="middle" style="font-size:9px;fill:#aaa;">Tailwind</text></g><g class="node skill revealed-node interactive unlocked energy" style="--skill-color:#dea584" data-skill-id="Rust" data-name="Rust" data-color="#dea584" data-level="50" data-rarity="common" data-parents="Backend" onclick="handleClick(this)"><path class="hex-bg" d="M 392.1361015426879,250.81617291339538 L 366.15533942915476,265.81617291339535 L 340.1745773156216,250.81617291339538 L 340.1745773156216,220.81617291339538 L 366.15533942915476,205.81617291339538 L 392.1361015426879,220.81617291339538 Z" fill="#000"/><path class="hex-border" d="M 392.1361015426879,250.81617291339538 L 366.15533942915476,265.81617291339535 L 340.1745773156216,250.81617291339538 L 340.1745773156216,220.81617291339538 L 366.15533942915476,205.81617291339538 L 392.1361015426879,220.81617291339538 Z" style="stroke-opacity: 1 !important; stroke-width: 3.5 !important; stroke-dasharray: none; animation: none; " fill="none" stroke="#dea584" stroke-opacity=".3" stroke-width="2.5"/><g class="lock-icon" transform="translate(366.15533942915476,235.81617291339538) scale(.8)"><path d="M -4 -2 v-3 a 4 4 0 0 1 8 0 v3 M -5 -2 h10 v8 h-10 z" fill="none" stroke="#aaa" stroke-width="1.8"/></g><text class="skill-text" x="366.15533942915476" y="238.81617291339538" text-anchor="middle" style="font-size:9px;fill:#aaa;">Rust</text></g><g class="node skill revealed-node interactive unlocked energy" style="--skill-color:#e67e22" data-skill-id="Python" data-name="Python" data-color="#e67e22" data-level="90" data-rarity="common" data-parents="Backend" onclick="handleClick(this)"><path class="hex-bg" d="M 144.00071046936097,423.9817660297345 L 143.00183769987262,429.64665500744496 L 141.0344424045428,435.0520291565049 L 138.1583028938701,440.0336489186463 L 134.46080921148942,444.4401502982179 L 130.05430783191787,448.1376439805985 L 125.07268806977645,451.0137834912712 L 119.66731392071655,452.98117878660105 L 114.00242494300609,453.9800515560894 L 108.25014592166065,453.9800515560894 L 102.58525694395018,452.98117878660105 L 97.17988279489029,451.0137834912712 L 92.19826303274886,448.1376439805985 L 87.7917616531773,444.4401502982179 L 84.09426797079664,440.0336489186463 L 81.21812846012392,435.0520291565049 L 79.25073316479411,429.64665500744496 L 78.25186039530575,423.9817660297345 L 78.25186039530575,418.22948700838907 L 79.2507331647941,412.5645980306786 L 81.2181284601239,407.1592238816187 L 84.09426797079664,402.1776041194773 L 87.79176165317728,397.77110273990576 L 92.19826303274883,394.07360905752506 L 97.17988279489026,391.19746954685235 L 102.58525694395018,389.2300742515225 L 108.25014592166065,388.2312014820342 L 114.00242494300608,388.2312014820342 L 119.66731392071654,389.2300742515225 L 125.07268806977645,391.19746954685235 L 130.05430783191787,394.07360905752506 L 134.46080921148942,397.7711027399057 L 138.1583028938701,402.1776041194772 L 141.0344424045428,407.1592238816187 L 143.00183769987262,412.5645980306786 L 144.00071046936097,418.22948700838907 Z" fill="#000"/><path class="hex-border" d="M 144.00071046936097,423.9817660297345 L 143.00183769987262,429.64665500744496 L 141.0344424045428,435.0520291565049 L 138.1583028938701,440.0336489186463 L 134.46080921148942,444.4401502982179 L 130.05430783191787,448.1376439805985 L 125.07268806977645,451.0137834912712 L 119.66731392071655,452.98117878660105 L 114.00242494300609,453.9800515560894 L 108.25014592166065,453.9800515560894 L 102.58525694395018,452.98117878660105 L 97.17988279489029,451.0137834912712 L 92.19826303274886,448.1376439805985 L 87.7917616531773,444.4401502982179 L 84.09426797079664,440.0336489186463 L 81.21812846012392,435.0520291565049 L 79.25073316479411,429.64665500744496 L 78.25186039530575,423.9817660297345 L 78.25186039530575,418.22948700838907 L 79.2507331647941,412.5645980306786 L 81.2181284601239,407.1592238816187 L 84.09426797079664,402.1776041194773 L 87.79176165317728,397.77110273990576 L 92.19826303274883,394.07360905752506 L 97.17988279489026,391.19746954685235 L 102.58525694395018,389.2300742515225 L 108.25014592166065,388.2312014820342 L 114.00242494300608,388.2312014820342 L 119.66731392071654,389.2300742515225 L 125.07268806977645,391.19746954685235 L 130.05430783191787,394.07360905752506 L 134.46080921148942,397.7711027399057 L 138.1583028938701,402.1776041194772 L 141.0344424045428,407.1592238816187 L 143.00183769987262,412.5645980306786 L 144.00071046936097,418.22948700838907 Z" style="stroke-opacity: 1 !important; stroke-width: 3.5 !important; stroke-dasharray: none; animation: none; " fill="none" stroke="#e67e22" stroke-opacity=".3" stroke-width="2.5"/><g class="lock-icon" transform="translate(111.12628543233336,421.1056265190618) scale(.8)"><path d="M -4 -2 v-3 a 4 4 0 0 1 8 0 v3 M -5 -2 h10 v8 h-10 z" fill="none" stroke="#aaa" stroke-width="1.8"/></g><text class="skill-text" x="111.12628543233336" y="424.1056265190618" text-anchor="middle" style="font-size:9px;fill:#aaa;">Python</text></g><g class="node skill revealed-node interactive unlocked energy" style="--skill-color:#3ecf8e" data-skill-id="Supabase" data-name="Supabase" data-color="#3ecf8e" data-level="80" data-rarity="common" data-parents="Databases" onclick="handleClick(this)"><path class="hex-bg" d="M -68.83807765020859,430.0731289748237 L -70.04883252231568,436.9396610690182 L -72.43355409241241,443.4916297345453 L -75.91978380231873,449.52995671895917 L -80.4015943264165,454.87117051237925 L -85.74280811983655,459.352981036477 L -91.78113510425041,462.83921074638334 L -98.33310376977757,465.22393231648005 L -105.19963586397206,466.4346871885872 L -112.17209528378473,466.4346871885872 L -119.03862737797922,465.2239323164801 L -125.59059604350638,462.83921074638334 L -131.62892302792022,459.35298103647705 L -136.9701368213403,454.87117051237925 L -141.45194734543807,449.5299567189592 L -144.9381770553444,443.49162973454537 L -147.32289862544113,436.9396610690182 L -148.53365349754822,430.0731289748237 L -148.53365349754822,423.10066955501105 L -147.32289862544116,416.23413746081656 L -144.9381770553444,409.6821687952894 L -141.45194734543807,403.64384181087553 L -136.9701368213403,398.30262801745545 L -131.62892302792025,393.8208174933577 L -125.5905960435064,390.33458778345135 L -119.03862737797922,387.9498662133546 L -112.17209528378473,386.7391113412475 L -105.19963586397209,386.7391113412475 L -98.3331037697776,387.9498662133546 L -91.78113510425041,390.33458778345135 L -85.74280811983658,393.82081749335765 L -80.4015943264165,398.30262801745545 L -75.91978380231873,403.6438418108755 L -72.43355409241241,409.6821687952894 L -70.04883252231568,416.2341374608165 L -68.83807765020859,423.100669555011 Z" fill="#000"/><path class="hex-border" d="M -68.83807765020859,430.0731289748237 L -70.04883252231568,436.9396610690182 L -72.43355409241241,443.4916297345453 L -75.91978380231873,449.52995671895917 L -80.4015943264165,454.87117051237925 L -85.74280811983655,459.352981036477 L -91.78113510425041,462.83921074638334 L -98.33310376977757,465.22393231648005 L -105.19963586397206,466.4346871885872 L -112.17209528378473,466.4346871885872 L -119.03862737797922,465.2239323164801 L -125.59059604350638,462.83921074638334 L -131.62892302792022,459.35298103647705 L -136.9701368213403,454.87117051237925 L -141.45194734543807,449.5299567189592 L -144.9381770553444,443.49162973454537 L -147.32289862544113,436.9396610690182 L -148.53365349754822,430.0731289748237 L -148.53365349754822,423.10066955501105 L -147.32289862544116,416.23413746081656 L -144.9381770553444,409.6821687952894 L -141.45194734543807,403.64384181087553 L -136.9701368213403,398.30262801745545 L -131.62892302792025,393.8208174933577 L -125.5905960435064,390.33458778345135 L -119.03862737797922,387.9498662133546 L -112.17209528378473,386.7391113412475 L -105.19963586397209,386.7391113412475 L -98.3331037697776,387.9498662133546 L -91.78113510425041,390.33458778345135 L -85.74280811983658,393.82081749335765 L -80.4015943264165,398.30262801745545 L -75.91978380231873,403.6438418108755 L -72.43355409241241,409.6821687952894 L -70.04883252231568,416.2341374608165 L -68.83807765020859,423.100669555011 Z" style="stroke-opacity: 1 !important; stroke-width: 3.5 !important; stroke-dasharray: none; animation: none; " fill="none" stroke="#3ecf8e" stroke-opacity=".3" stroke-width="2.5"/><g class="lock-icon" transform="translate(-108.6858655738784,426.58689926491735) scale(.8)"><path d="M -4 -2 v-3 a 4 4 0 0 1 8 0 v3 M -5 -2 h10 v8 h-10 z" fill="none" stroke="#aaa" stroke-width="1.8"/></g><text class="skill-text" x="-108.6858655738784" y="429.58689926491735" text-anchor="middle" style="font-size:9px;fill:#aaa;">Supabase</text></g><g class="node skill revealed-node interactive unlocked energy" style="--skill-color:#ff00a0" data-skill-id="SurrealDB" data-name="SurrealDB" data-color="#ff00a0" data-level="50" data-rarity="common" data-parents="Databases" onclick="handleClick(this)"><path class="hex-bg" d="M -329.2860987834193,238.93669907193885 L -330.5876602709344,246.31822107319795 L -333.1512359587884,253.36158738863963 L -336.8989328969377,259.85278889688453 L -341.71687921034277,265.5945937248111 L -347.4586840382693,270.4125400382162 L -353.9498855465142,274.1602369763655 L -360.9932518619559,276.7238126642195 L -368.374773863215,278.02537415173464 L -375.87016773951365,278.02537415173464 L -383.2516897407727,276.7238126642195 L -390.2950560562144,274.1602369763655 L -396.7862575644593,270.4125400382162 L -402.5280623923859,265.5945937248111 L -407.34600870579095,259.85278889688453 L -411.09370564394027,253.36158738863966 L -413.65728133179425,246.31822107319795 L -414.9588428193094,238.93669907193885 L -414.9588428193094,231.44130519564027 L -413.65728133179425,224.05978319438117 L -411.09370564394027,217.01641687893948 L -407.34600870579095,210.52521537069458 L -402.5280623923859,204.78341054276802 L -396.78625756445933,199.9654642293629 L -390.29505605621443,196.21776729121362 L -383.2516897407727,193.6541916033596 L -375.87016773951365,192.3526301158445 L -368.37477386321507,192.3526301158445 L -360.99325186195597,193.6541916033596 L -353.9498855465142,196.21776729121362 L -347.4586840382694,199.96546422936288 L -341.71687921034277,204.783410542768 L -336.8989328969377,210.52521537069455 L -333.1512359587884,217.01641687893948 L -330.5876602709344,224.05978319438117 L -329.2860987834193,231.44130519564024 Z" fill="#000"/><path class="hex-border" d="M -329.2860987834193,238.93669907193885 L -330.5876602709344,246.31822107319795 L -333.1512359587884,253.36158738863963 L -336.8989328969377,259.85278889688453 L -341.71687921034277,265.5945937248111 L -347.4586840382693,270.4125400382162 L -353.9498855465142,274.1602369763655 L -360.9932518619559,276.7238126642195 L -368.374773863215,278.02537415173464 L -375.87016773951365,278.02537415173464 L -383.2516897407727,276.7238126642195 L -390.2950560562144,274.1602369763655 L -396.7862575644593,270.4125400382162 L -402.5280623923859,265.5945937248111 L -407.34600870579095,259.85278889688453 L -411.09370564394027,253.36158738863966 L -413.65728133179425,246.31822107319795 L -414.9588428193094,238.93669907193885 L -414.9588428193094,231.44130519564027 L -413.65728133179425,224.05978319438117 L -411.09370564394027,217.01641687893948 L -407.34600870579095,210.52521537069458 L -402.5280623923859,204.78341054276802 L -396.78625756445933,199.9654642293629 L -390.29505605621443,196.21776729121362 L -383.2516897407727,193.6541916033596 L -375.87016773951365,192.3526301158445 L -368.37477386321507,192.3526301158445 L -360.99325186195597,193.6541916033596 L -353.9498855465142,196.21776729121362 L -347.4586840382694,199.96546422936288 L -341.71687921034277,204.783410542768 L -336.8989328969377,210.52521537069455 L -333.1512359587884,217.01641687893948 L -330.5876602709344,224.05978319438117 L -329.2860987834193,231.44130519564024 Z" style="stroke-opacity: 1 !important; stroke-width: 3.5 !important; stroke-dasharray: none; animation: none; " fill="none" stroke="#ff00a0" stroke-opacity=".3" stroke-width="2.5"/><g class="lock-icon" transform="translate(-372.12247080136433,235.18900213378956) scale(.8)"><path d="M -4 -2 v-3 a 4 4 0 0 1 8 0 v3 M -5 -2 h10 v8 h-10 z" fill="none" stroke="#aaa" stroke-width="1.8"/></g><text class="skill-text" x="-372.12247080136433" y="238.18900213378956" text-anchor="middle" style="font-size:9px;fill:#aaa;">SurrealDB</text></g><g class="node skill revealed-node interactive unlocked energy" style="--skill-color:#2ecc71" data-skill-id="Bun" data-name="Bun" data-color="#2ecc71" data-level="95" data-rarity="common" data-parents="Tools" onclick="handleClick(this)"><path class="hex-bg" d="M -404.94931992710667,27.05608941163367 L -405.857386081187,32.20598848227955 L -407.6459272587595,37.119964981424914 L -410.26059954118926,41.64871021973531 L -413.6219574342626,45.654620564800354 L -417.62786777932763,49.015978457873686 L -422.156613017638,51.63065074030342 L -427.0705895167834,53.41919191787598 L -432.22048858742926,54.327258071956294 L -437.44983315228876,54.327258071956294 L -442.5997322229346,53.41919191787598 L -447.51370872207997,51.63065074030343 L -452.0424539603904,49.015978457873686 L -456.04836430545544,45.654620564800354 L -459.40972219852875,41.64871021973532 L -462.0243944809585,37.11996498142492 L -463.81293565853105,32.20598848227956 L -464.72100181261135,27.05608941163367 L -464.72100181261135,21.82674484677419 L -463.81293565853105,16.676845776128317 L -462.0243944809585,11.762869276982949 L -459.40972219852875,7.234124038672544 L -456.04836430545544,3.2282136936075148 L -452.0424539603904,-0.13314419946582134 L -447.51370872208,-2.7478164818955655 L -442.5997322229346,-4.536357659468123 L -437.44983315228876,-5.44442381354844 L -432.22048858742926,-5.44442381354844 L -427.0705895167834,-4.536357659468127 L -422.156613017638,-2.747816481895569 L -417.62786777932763,-0.13314419946584266 L -413.6219574342626,3.228213693607497 L -410.26059954118926,7.234124038672533 L -407.6459272587595,11.76286927698295 L -405.857386081187,16.676845776128307 L -404.94931992710667,21.826744846774176 Z" fill="#000"/><path class="hex-border" d="M -404.94931992710667,27.05608941163367 L -405.857386081187,32.20598848227955 L -407.6459272587595,37.119964981424914 L -410.26059954118926,41.64871021973531 L -413.6219574342626,45.654620564800354 L -417.62786777932763,49.015978457873686 L -422.156613017638,51.63065074030342 L -427.0705895167834,53.41919191787598 L -432.22048858742926,54.327258071956294 L -437.44983315228876,54.327258071956294 L -442.5997322229346,53.41919191787598 L -447.51370872207997,51.63065074030343 L -452.0424539603904,49.015978457873686 L -456.04836430545544,45.654620564800354 L -459.40972219852875,41.64871021973532 L -462.0243944809585,37.11996498142492 L -463.81293565853105,32.20598848227956 L -464.72100181261135,27.05608941163367 L -464.72100181261135,21.82674484677419 L -463.81293565853105,16.676845776128317 L -462.0243944809585,11.762869276982949 L -459.40972219852875,7.234124038672544 L -456.04836430545544,3.2282136936075148 L -452.0424539603904,-0.13314419946582134 L -447.51370872208,-2.7478164818955655 L -442.5997322229346,-4.536357659468123 L -437.44983315228876,-5.44442381354844 L -432.22048858742926,-5.44442381354844 L -427.0705895167834,-4.536357659468127 L -422.156613017638,-2.747816481895569 L -417.62786777932763,-0.13314419946584266 L -413.6219574342626,3.228213693607497 L -410.26059954118926,7.234124038672533 L -407.6459272587595,11.76286927698295 L -405.857386081187,16.676845776128307 L -404.94931992710667,21.826744846774176 Z" style="stroke-opacity: 1 !important; stroke-width: 3.5 !important; stroke-dasharray: none; animation: flow 1s linear infinite normal; " fill="none" stroke="#2ecc71" stroke-opacity=".3" stroke-width="2.5"/><g class="lock-icon" transform="translate(-434.835160869859,24.441417129203927) scale(.8)"><path d="M -4 -2 v-3 a 4 4 0 0 1 8 0 v3 M -5 -2 h10 v8 h-10 z" fill="none" stroke="#aaa" stroke-width="1.8"/></g><text class="skill-text" x="-434.835160869859" y="27.441417129203927" text-anchor="middle" style="font-size:9px;fill:#aaa;">Bun</text></g><g class="node skill revealed-node interactive unlocked energy" style="--skill-color:#2ecc71" data-skill-id="Git" data-name="Git" data-color="#2ecc71" data-level="90" data-rarity="common" data-parents="Tools" onclick="handleClick(this)"><path class="hex-bg" d="M -307.5368894190532,-272.7485442792313 L -308.44495557313354,-267.5986452085854 L -310.2334967507061,-262.6846687094401 L -312.84816903313583,-258.15592347112965 L -316.20952692620915,-254.1500131260646 L -320.2154372712742,-250.7886552329913 L -324.74418250958456,-248.17398295056154 L -329.65815900872997,-246.385441772989 L -334.8080580793758,-245.47737561890867 L -340.0374026442353,-245.47737561890867 L -345.1873017148812,-246.385441772989 L -350.10127821402654,-248.17398295056154 L -354.63002345233696,-250.7886552329913 L -358.635933797402,-254.1500131260646 L -361.9972916904753,-258.15592347112965 L -364.6119639729051,-262.68466870944 L -366.4005051504776,-267.5986452085854 L -367.308571304558,-272.7485442792313 L -367.308571304558,-277.9778888440908 L -366.4005051504776,-283.12778791473664 L -364.6119639729051,-288.041764413882 L -361.9972916904753,-292.5705096521924 L -358.635933797402,-296.57641999725746 L -354.63002345233696,-299.9377778903308 L -350.1012782140266,-302.55245017276053 L -345.1873017148812,-304.34099135033307 L -340.0374026442353,-305.2490575044134 L -334.8080580793758,-305.2490575044134 L -329.65815900872997,-304.34099135033307 L -324.74418250958456,-302.55245017276053 L -320.2154372712742,-299.9377778903308 L -316.20952692620915,-296.57641999725746 L -312.84816903313583,-292.5705096521924 L -310.2334967507061,-288.041764413882 L -308.44495557313354,-283.12778791473664 L -307.5368894190532,-277.9778888440908 Z" fill="#000"/><path class="hex-border" d="M -307.5368894190532,-272.7485442792313 L -308.44495557313354,-267.5986452085854 L -310.2334967507061,-262.6846687094401 L -312.84816903313583,-258.15592347112965 L -316.20952692620915,-254.1500131260646 L -320.2154372712742,-250.7886552329913 L -324.74418250958456,-248.17398295056154 L -329.65815900872997,-246.385441772989 L -334.8080580793758,-245.47737561890867 L -340.0374026442353,-245.47737561890867 L -345.1873017148812,-246.385441772989 L -350.10127821402654,-248.17398295056154 L -354.63002345233696,-250.7886552329913 L -358.635933797402,-254.1500131260646 L -361.9972916904753,-258.15592347112965 L -364.6119639729051,-262.68466870944 L -366.4005051504776,-267.5986452085854 L -367.308571304558,-272.7485442792313 L -367.308571304558,-277.9778888440908 L -366.4005051504776,-283.12778791473664 L -364.6119639729051,-288.041764413882 L -361.9972916904753,-292.5705096521924 L -358.635933797402,-296.57641999725746 L -354.63002345233696,-299.9377778903308 L -350.1012782140266,-302.55245017276053 L -345.1873017148812,-304.34099135033307 L -340.0374026442353,-305.2490575044134 L -334.8080580793758,-305.2490575044134 L -329.65815900872997,-304.34099135033307 L -324.74418250958456,-302.55245017276053 L -320.2154372712742,-299.9377778903308 L -316.20952692620915,-296.57641999725746 L -312.84816903313583,-292.5705096521924 L -310.2334967507061,-288.041764413882 L -308.44495557313354,-283.12778791473664 L -307.5368894190532,-277.9778888440908 Z" style="stroke-opacity: 1 !important; stroke-width: 3.5 !important; stroke-dasharray: none; animation: none; " fill="none" stroke="#2ecc71" stroke-opacity=".3" stroke-width="2.5"/><g class="lock-icon" transform="translate(-337.4227303618056,-275.36321656166103) scale(.8)"><path d="M -4 -2 v-3 a 4 4 0 0 1 8 0 v3 M -5 -2 h10 v8 h-10 z" fill="none" stroke="#aaa" stroke-width="1.8"/></g><text class="skill-text" x="-337.4227303618056" y="-272.36321656166103" text-anchor="middle" style="font-size:9px;fill:#aaa;">Git</text></g></svg>